<?xml version="1.0" encoding="UTF-8"?>
<svg id="Capa_2" data-name="Capa 2" xmlns="http://www.w3.org/2000/svg" viewBox="0 0 29.66 31.06">
  <defs>
    <style>
      .cls-1 {
        fill: #fff;
      }

      .cls-2 {
        fill: #111827;
      }
    </style>
  </defs>
  <g id="icono">
    <g>
      <ellipse class="cls-2" cx="14.83" cy="15.53" rx="14.83" ry="15.53"/>
      <g>
        <g>
          <path class="cls-1" d="M8.98,25.16c-.82,0-1.59-.3-2.19-.86-.64-.59-1.01-1.39-1.04-2.25-.04-.87.27-1.69.86-2.33.61-.66,1.48-1.04,2.38-1.04.82,0,1.6.3,2.2.86,1.31,1.21,1.4,3.26.19,4.58-.61.66-1.48,1.04-2.38,1.04Z"/>
          <path class="cls-1" d="M8.98,18.93h0c.75,0,1.47.28,2.03.79.59.54.93,1.28.96,2.08.03.8-.25,1.56-.79,2.15-.56.61-1.37.96-2.2.96-.75,0-1.47-.28-2.03-.79-.59-.54-.93-1.28-.96-2.08-.03-.8.25-1.56.79-2.15.56-.61,1.37-.96,2.2-.96M8.98,18.43c-.94,0-1.88.38-2.57,1.12-1.31,1.42-1.22,3.63.2,4.93.67.62,1.52.92,2.36.92.94,0,1.88-.38,2.57-1.12,1.31-1.42,1.22-3.63-.2-4.93-.67-.62-1.52-.92-2.36-.92h0Z"/>
        </g>
        <g>
          <path class="cls-1" d="M20.68,12.38c-.24,0-.48-.03-.71-.08-1.74-.39-2.84-2.13-2.45-3.87.33-1.47,1.66-2.53,3.16-2.53.24,0,.48.03.71.08.84.19,1.56.7,2.03,1.43s.61,1.6.42,2.44c-.33,1.47-1.66,2.53-3.16,2.53Z"/>
          <path class="cls-1" d="M20.68,6.15h0c.22,0,.44.02.66.07.78.18,1.44.64,1.87,1.32s.57,1.48.39,2.25c-.3,1.35-1.53,2.33-2.91,2.33-.22,0-.44-.02-.66-.07-.78-.18-1.44-.64-1.87-1.32s-.57-1.48-.39-2.25c.3-1.35,1.53-2.33,2.91-2.33M20.68,5.65c-1.6,0-3.04,1.1-3.4,2.73-.42,1.88.76,3.75,2.64,4.17.26.06.52.09.77.09,1.6,0,3.04-1.1,3.4-2.73.42-1.88-.76-3.75-2.64-4.17-.26-.06-.52-.09-.77-.09h0Z"/>
        </g>
        <path class="cls-1" d="M20.68,18.93c.83,0,1.63.35,2.2.96,1.12,1.21,1.04,3.11-.17,4.22-.55.51-1.27.79-2.03.79-.83,0-1.63-.35-2.2-.96-.54-.59-.82-1.35-.79-2.15.03-.8.37-1.54.96-2.08.55-.51,1.27-.79,2.03-.79M20.68,18.43c-.85,0-1.69.31-2.36.92-1.42,1.31-1.51,3.51-.2,4.93.69.75,1.63,1.12,2.57,1.12.85,0,1.69-.31,2.36-.92,1.42-1.31,1.51-3.51.2-4.93-.69-.75-1.63-1.12-2.57-1.12h0Z"/>
        <path class="cls-1" d="M8.98,6.15c1.38,0,2.61.98,2.91,2.33.18.78.04,1.58-.39,2.25s-1.09,1.14-1.87,1.32c-.22.05-.44.07-.66.07-1.38,0-2.61-.98-2.91-2.33-.18-.78-.04-1.58.39-2.25s1.09-1.14,1.87-1.32c.22-.05.44-.07.66-.07M8.98,5.65c-.25,0-.51.03-.77.09-1.88.42-3.06,2.29-2.64,4.17.36,1.62,1.81,2.73,3.4,2.73.25,0,.51-.03.77-.09,1.88-.42,3.06-2.29,2.64-4.17-.36-1.62-1.81-2.73-3.4-2.73h0Z"/>
        <g>
          <path class="cls-1" d="M12.17,15.23c-1.06-.97-2.19-1.84-3.35-2.59.15-.02.29-.04.44-.07,1.62-.37,2.83-1.65,3.1-3.27.64,1.19,1.36,2.31,2.15,3.33-.42.54-.85,1.05-1.3,1.53-.34.37-.69.74-1.05,1.08Z"/>
          <path class="cls-1" d="M12.45,9.97c.53.94,1.12,1.82,1.74,2.65-.38.48-.77.94-1.16,1.36-.26.28-.56.6-.87.91-.86-.78-1.76-1.48-2.69-2.12,1.43-.38,2.53-1.44,2.98-2.8M12.18,8.39v.15c0,.08,0,.16-.01.25,0,.08,0,.15-.01.23,0,.05-.02.11-.03.16-.23,1.5-1.35,2.78-2.92,3.14-.29.06-.58.09-.86.09-.14,0-.27,0-.4-.02,1.5.89,2.91,1.96,4.22,3.18.42-.39.83-.82,1.23-1.25.49-.53.95-1.08,1.38-1.64.02-.02.03-.04.05-.06-1.05-1.34-1.92-2.76-2.65-4.23h0Z"/>
        </g>
        <g>
          <path class="cls-1" d="M17.3,21.81c-.63-1.16-1.36-2.27-2.16-3.32.42-.54.87-1.05,1.22-1.44.36-.39.74-.77,1.12-1.14,1.08,1,2.21,1.88,3.4,2.65-.88.08-1.71.45-2.35,1.05-.64.59-1.06,1.36-1.23,2.2Z"/>
          <path class="cls-1" d="M17.49,16.26c.86.78,1.78,1.51,2.74,2.17-.69.17-1.33.52-1.87,1.01-.52.48-.91,1.08-1.14,1.72-.53-.92-1.12-1.81-1.76-2.66.3-.38.65-.78,1.09-1.27.33-.35.64-.67.94-.97M17.48,15.57s-.03.03-.04.04c-.43.41-.85.84-1.26,1.28-.47.52-.93,1.05-1.35,1.6.01.02.02.04.04.06,1.02,1.31,1.89,2.7,2.61,4.14-.03-1.05.38-2.11,1.22-2.89.73-.68,1.66-1,2.58-1,.1,0,.2,0,.3.01.07,0,.14,0,.2.02-1.5-.9-2.93-1.97-4.25-3.21l-.05-.05h0Z"/>
        </g>
        <path class="cls-1" d="M17.2,9.97c.45,1.37,1.55,2.42,2.98,2.8-1.05.72-2.07,1.53-3.04,2.43l-.07.06h0c-.4.39-.82.81-1.26,1.29-.57.64-1,1.13-1.36,1.61-.01.01-.02.02-.02.03l-.02.02-.02.02c-.72.92-1.37,1.9-1.96,2.92-.23-.65-.62-1.24-1.14-1.73-.53-.49-1.17-.83-1.87-1.01,1.08-.74,2.1-1.56,3.05-2.45l.04-.04c.45-.41.89-.88,1.26-1.28.48-.52.95-1.08,1.4-1.66.01-.01.02-.02.02-.03l.02-.02.02-.03c.71-.92,1.37-1.91,1.97-2.96M17.47,8.39c-.73,1.47-1.6,2.89-2.64,4.23-.02.02-.03.04-.05.06-.43.56-.89,1.11-1.38,1.64-.4.43-.81.86-1.23,1.25-.02.02-.03.03-.05.05-1.32,1.24-2.75,2.31-4.25,3.21.06-.01.13-.01.2-.02.1,0,.2-.01.3-.01.92,0,1.85.33,2.58,1,.84.78,1.25,1.84,1.22,2.89.72-1.44,1.59-2.83,2.61-4.14.02-.02.03-.04.05-.06.42-.55.88-1.08,1.35-1.6.41-.44.83-.87,1.26-1.28.01-.01.03-.02.04-.04,1.31-1.22,2.72-2.29,4.22-3.18-.13.01-.27.02-.4.02-.28,0-.57-.03-.86-.09-1.57-.36-2.69-1.64-2.92-3.14-.01-.05-.02-.11-.03-.16-.01-.08-.01-.15-.01-.23,0-.09,0-.17,0-.25v-.15h0Z"/>
      </g>
    </g>
  </g>
</svg>