<?xml version="1.0" encoding="UTF-8"?>
<svg id="Capa_2" data-name="Capa 2" xmlns="http://www.w3.org/2000/svg" viewBox="0 0 29.66 31.06">
  <defs>
    <style>
      .cls-1 {
        fill: #fff;
      }

      .cls-2 {
        fill: #111827;
      }
    </style>
  </defs>
  <g id="icono">
    <g>
      <ellipse class="cls-1" cx="14.83" cy="15.53" rx="14.83" ry="15.53"/>
      <g>
        <path d="M8.98,18.93h0c.75,0,1.47.28,2.03.79.59.54.93,1.28.96,2.08.03.8-.25,1.56-.79,2.15-.56.61-1.37.96-2.2.96-.75,0-1.47-.28-2.03-.79-.59-.54-.93-1.28-.96-2.08-.03-.8.25-1.56.79-2.15.56-.61,1.37-.96,2.2-.96M8.98,18.43c-.94,0-1.88.38-2.57,1.12-1.31,1.42-1.22,3.62.2,4.93.67.62,1.52.92,2.36.92.94,0,1.88-.38,2.57-1.12,1.31-1.42,1.22-3.63-.2-4.93-.67-.62-1.52-.92-2.36-.92h0Z"/>
        <path d="M20.68,6.15h0c.22,0,.44.02.66.07.78.18,1.44.64,1.87,1.32s.57,1.48.39,2.25c-.3,1.35-1.53,2.33-2.91,2.33-.22,0-.44-.02-.66-.07-.78-.18-1.44-.64-1.87-1.32s-.57-1.48-.39-2.25c.3-1.35,1.53-2.33,2.91-2.33M20.68,5.65c-1.6,0-3.04,1.1-3.4,2.73-.42,1.88.76,3.75,2.64,4.17.26.06.52.09.77.09,1.6,0,3.04-1.1,3.4-2.73.42-1.88-.76-3.75-2.64-4.17-.26-.06-.52-.09-.77-.09h0Z"/>
        <circle class="cls-2" cx="20.68" cy="21.92" r="3.49"/>
        <circle class="cls-2" cx="8.98" cy="9.14" r="3.49"/>
        <path d="M12.46,9.96c.61,1.06,1.28,2.07,2.02,3.02.45.59.93,1.15,1.41,1.68.4.43.84.89,1.3,1.32.94.89,1.96,1.7,3.04,2.44-.69.17-1.33.52-1.87,1.01-.52.48-.91,1.08-1.14,1.72-.59-1.02-1.24-1.99-1.96-2.91-.42-.54-.88-1.09-1.43-1.7-.45-.48-.87-.91-1.28-1.3-.97-.91-2-1.74-3.08-2.48,1.43-.38,2.54-1.44,2.98-2.8M12.18,8.39v.15c0,.08,0,.16-.01.25,0,.08,0,.15,0,.23-.01.05-.02.11-.03.16-.23,1.5-1.35,2.78-2.92,3.14-.29.06-.58.09-.86.09-.14,0-.27,0-.4-.02,1.51.9,2.94,1.98,4.26,3.22.43.41.85.84,1.26,1.28.49.54.96,1.09,1.4,1.66,1.02,1.31,1.89,2.7,2.61,4.14-.03-1.05.38-2.11,1.22-2.89.73-.68,1.66-1,2.58-1,.1,0,.2,0,.3.01.07.01.14.01.2.02-1.5-.9-2.93-1.97-4.25-3.21-.44-.41-.86-.85-1.28-1.3-.49-.53-.95-1.08-1.38-1.64-1.06-1.36-1.95-2.8-2.69-4.29h0Z"/>
        <path class="cls-2" d="M14.87,18.55c-1.03,1.31-1.89,2.7-2.61,4.14.02-1.05-.39-2.11-1.23-2.89-.81-.75-1.86-1.07-2.88-.99-.07.01-.14.01-.2.02,1.5-.9,2.93-1.97,4.26-3.22.43.41.85.84,1.26,1.28.49.54.96,1.09,1.4,1.66Z"/>
        <path class="cls-2" d="M21.78,12.39c-1.5.9-2.93,1.98-4.25,3.23-.44-.41-.86-.85-1.28-1.3-.49-.53-.95-1.08-1.38-1.64,1.06-1.36,1.95-2.8,2.69-4.29-.01.05-.01.1-.01.15,0,.08,0,.16.01.25,0,.08.01.15.02.23,0,.05.01.11.02.16.23,1.5,1.35,2.78,2.93,3.14.42.09.84.11,1.25.07Z"/>
      </g>
    </g>
  </g>
</svg>